#scale 10.0
v -0.5256696428571428 0.30375744047619047 0.0
v 0.4196428571428572 0.30375744047619047 0.0
v 0.4196428571428572 0.43656994047619047 0.0
v -0.5256696428571428 0.43656994047619047 0.0
v 0.044642857142857206 0.045944940476190466 0.0
v 0.4196428571428572 0.045944940476190466 0.0
v 0.4196428571428572 0.31156994047619047 0.0
v 0.044642857142857206 0.31156994047619047 0.0
v -0.5256696428571428 -0.45405505952380953 0.0
v -0.3459821428571428 -0.45405505952380953 0.0
v -0.3459821428571428 0.31156994047619047 0.0
v -0.5256696428571428 0.31156994047619047 0.0
v -0.3537946428571428 -0.45405505952380953 0.0
v -0.0959821428571428 -0.45405505952380953 0.0
v -0.0959821428571428 -0.12593005952380953 0.0
v -0.3537946428571428 -0.12593005952380953 0.0
v -0.1037946428571428 -0.45405505952380953 0.0
v 0.052455357142857206 -0.45405505952380953 0.0
v 0.052455357142857206 0.17875744047619047 0.0
v -0.1037946428571428 0.17875744047619047 0.0
v 0.044642857142857206 -0.45405505952380953 0.0
v 0.1540178571428572 -0.45405505952380953 0.0
v 0.1540178571428572 0.053757440476190466 0.0
v 0.044642857142857206 0.053757440476190466 0.0
v 0.1462053571428572 -0.45405505952380953 0.0
v 0.4196428571428572 -0.45405505952380953 0.0
v 0.4196428571428572 -0.15718005952380953 0.0
v 0.1462053571428572 -0.15718005952380953 0.0

vt 0.0 0.0
vt 11.9 0.0
vt 11.9 1.5
vt 0.0 1.5
vt 0.0 0.0
vt 4.6 0.0
vt 4.6 3.2
vt 0.0 3.2
vt 0.0 0.0
vt 2.1 0.0
vt 2.1 9.6
vt 0.0 9.6
vt 0.0 0.0
vt 3.1 0.0
vt 3.1 4.0
vt 0.0 4.0
vt 0.0 0.0
vt 1.8 0.0
vt 1.8 7.9
vt 0.0 7.9
vt 0.0 0.0
vt 1.2 0.0
vt 1.2 6.3
vt 0.0 6.3
vt 0.0 0.0
vt 3.3 0.0
vt 3.3 3.6
vt 0.0 3.6

vn 0.0 0.0 1.0
vn 0.0 0.0 1.0
vn 0.0 0.0 1.0
vn 0.0 0.0 1.0
vn 0.0 0.0 1.0
vn 0.0 0.0 1.0
vn 0.0 0.0 1.0
vn 0.0 0.0 1.0
vn 0.0 0.0 1.0
vn 0.0 0.0 1.0
vn 0.0 0.0 1.0
vn 0.0 0.0 1.0
vn 0.0 0.0 1.0
vn 0.0 0.0 1.0
vn 0.0 0.0 1.0
vn 0.0 0.0 1.0
vn 0.0 0.0 1.0
vn 0.0 0.0 1.0
vn 0.0 0.0 1.0
vn 0.0 0.0 1.0
vn 0.0 0.0 1.0
vn 0.0 0.0 1.0
vn 0.0 0.0 1.0
vn 0.0 0.0 1.0
vn 0.0 0.0 1.0
vn 0.0 0.0 1.0
vn 0.0 0.0 1.0
vn 0.0 0.0 1.0

o floor_0
mtllib output_floors.mtl
usemtl floors_material
f 1/1/1 2/2/2 3/3/3
f 1/1/1 3/3/3 4/4/4
o floor_1
mtllib output_floors.mtl
usemtl floors_material
f 5/5/5 6/6/6 7/7/7
f 5/5/5 7/7/7 8/8/8
o floor_2
mtllib output_floors.mtl
usemtl floors_material
f 9/9/9 10/10/10 11/11/11
f 9/9/9 11/11/11 12/12/12
o floor_3
mtllib output_floors.mtl
usemtl floors_material
f 13/13/13 14/14/14 15/15/15
f 13/13/13 15/15/15 16/16/16
o floor_4
mtllib output_floors.mtl
usemtl floors_material
f 17/17/17 18/18/18 19/19/19
f 17/17/17 19/19/19 20/20/20
o floor_5
mtllib output_floors.mtl
usemtl floors_material
f 21/21/21 22/22/22 23/23/23
f 21/21/21 23/23/23 24/24/24
o floor_6
mtllib output_floors.mtl
usemtl floors_material
f 25/25/25 26/26/26 27/27/27
f 25/25/25 27/27/27 28/28/28
