#scale 30
#dims 512 512
v -0.19362571022727276 0.03142755681818182 0.0
v 0.05246803977272724 0.03142755681818182 0.0
v 0.05246803977272724 0.08220880681818182 0.0
v -0.19362571022727276 0.08220880681818182 0.0
v -0.05104758522727276 -0.08575994318181818 0.0
v 0.05246803977272724 -0.08575994318181818 0.0
v 0.05246803977272724 0.03338068181818182 0.0
v -0.05104758522727276 0.03338068181818182 0.0
v 0.05051491477272724 -0.08575994318181818 0.0
v 0.17160866477272724 -0.08575994318181818 0.0
v 0.17160866477272724 -0.017400568181818177 0.0
v 0.05051491477272724 -0.017400568181818177 0.0

vt 0.0 0.0
vt 12.4 0.0
vt 12.4 2.4
vt 0.0 2.4
vt 0.0 0.0
vt 5.1 0.0
vt 5.1 5.9
vt 0.0 5.9
vt 0.0 0.0
vt 6.0 0.0
vt 6.0 3.3
vt 0.0 3.3

vn 0.0 0.0 1.0
vn 0.0 0.0 1.0
vn 0.0 0.0 1.0
vn 0.0 0.0 1.0
vn 0.0 0.0 1.0
vn 0.0 0.0 1.0
vn 0.0 0.0 1.0
vn 0.0 0.0 1.0
vn 0.0 0.0 1.0
vn 0.0 0.0 1.0
vn 0.0 0.0 1.0
vn 0.0 0.0 1.0

o floor_0
mtllib output_floors.mtl
usemtl floors_material
f 1/1/1 2/2/2 3/3/3
f 1/1/1 3/3/3 4/4/4
o floor_1
mtllib output_floors.mtl
usemtl floors_material
f 5/5/5 6/6/6 7/7/7
f 5/5/5 7/7/7 8/8/8
o floor_2
mtllib output_floors.mtl
usemtl floors_material
f 9/9/9 10/10/10 11/11/11
f 9/9/9 11/11/11 12/12/12
