#scale 10
#dims 196 209
v -0.23411483253588444 0.362296650717703 0.0
v 0.35918660287081416 0.362296650717703 0.0
v 0.35918660287081416 0.37665071770334896 0.0
v -0.23411483253588444 0.37665071770334896 0.0
v -0.09057416267942509 0.33837320574162644 0.0
v 0.35918660287081416 0.33837320574162644 0.0
v 0.35918660287081416 0.36708133971291834 0.0
v -0.09057416267942509 0.36708133971291834 0.0
v -0.09057416267942509 0.3144497607655499 0.0
v 0.17736842105263229 0.3144497607655499 0.0
v 0.17736842105263229 0.3431578947368418 0.0
v -0.09057416267942509 0.3431578947368418 0.0
v -0.2197607655502385 0.2761722488038274 0.0
v -0.21019138755980787 0.2761722488038274 0.0
v -0.21019138755980787 0.29531100478468864 0.0
v -0.2197607655502385 0.29531100478468864 0.0
v -0.2149760765550232 0.24267942583732025 0.0
v -0.09057416267942509 0.24267942583732025 0.0
v -0.09057416267942509 0.362296650717703 0.0
v -0.2149760765550232 0.362296650717703 0.0
v -0.09535885167464042 0.16133971291865995 0.0
v 0.18215311004784762 0.16133971291865995 0.0
v 0.18215311004784762 0.3144497607655499 0.0
v -0.09535885167464042 0.3144497607655499 0.0
v -0.009234449760764818 0.03693779904306188 0.0
v 0.06253588516746489 0.03693779904306188 0.0
v 0.06253588516746489 0.08478468899521502 0.0
v -0.009234449760764818 0.08478468899521502 0.0
v -0.2197607655502385 -0.020478468899521818 0.0
v -0.1432057416267935 -0.020478468899521818 0.0
v -0.1432057416267935 0.24267942583732025 0.0
v -0.2197607655502385 0.24267942583732025 0.0
v -0.009234449760764818 -0.12574162679425865 0.0
v 0.09602870813397202 -0.12574162679425865 0.0
v 0.09602870813397202 -0.039617224880383106 0.0
v -0.009234449760764818 -0.039617224880383106 0.0
v -0.16712918660287007 -0.4176076555023926 0.0
v -0.13842105263157822 -0.4176076555023926 0.0
v -0.13842105263157822 -0.020478468899521818 0.0
v -0.16712918660287007 -0.020478468899521818 0.0
v -0.1432057416267935 -0.4176076555023926 0.0
v -0.09057416267942509 -0.4176076555023926 0.0
v -0.09057416267942509 0.24746411483253555 0.0
v -0.1432057416267935 0.24746411483253555 0.0
v -0.09535885167464042 -0.4176076555023926 0.0
v -0.004449760765549482 -0.4176076555023926 0.0
v -0.004449760765549482 0.16612440191387529 0.0
v -0.09535885167464042 0.16612440191387529 0.0
v -0.009234449760764818 -0.4176076555023926 0.0
v 0.18215311004784762 -0.4176076555023926 0.0
v 0.18215311004784762 -0.3601913875598089 0.0
v -0.009234449760764818 -0.3601913875598089 0.0
v 0.17736842105263229 -0.4176076555023926 0.0
v 0.27306220095693856 -0.4176076555023926 0.0
v 0.27306220095693856 0.33837320574162644 0.0
v 0.17736842105263229 0.33837320574162644 0.0
v -0.1719138755980854 -0.46545454545454573 0.0
v 0.2778468899521538 -0.46545454545454573 0.0
v 0.2778468899521538 -0.4176076555023926 0.0
v -0.1719138755980854 -0.4176076555023926 0.0
v 0.27306220095693856 -0.46545454545454573 0.0
v 0.35918660287081416 -0.46545454545454573 0.0
v 0.35918660287081416 0.3431578947368418 0.0
v 0.27306220095693856 0.3431578947368418 0.0
v -0.23411483253588444 -0.5180861244019141 0.0
v -0.2149760765550232 -0.5180861244019141 0.0
v -0.2149760765550232 0.36708133971291834 0.0
v -0.23411483253588444 0.36708133971291834 0.0
v -0.2197607655502385 -0.5180861244019141 0.0
v -0.16712918660287007 -0.5180861244019141 0.0
v -0.16712918660287007 -0.015693779904306537 0.0
v -0.2197607655502385 -0.015693779904306537 0.0
v -0.1719138755980854 -0.5180861244019141 0.0
v -0.004449760765549482 -0.5180861244019141 0.0
v -0.004449760765549482 -0.4606698564593304 0.0
v -0.1719138755980854 -0.4606698564593304 0.0

vt 0.0 0.0
vt 12.2 0.0
vt 12.2 0.1
vt 0.0 0.1
vt 0.0 0.0
vt 9.2 0.0
vt 9.2 0.4
vt 0.0 0.4
vt 0.0 0.0
vt 5.4 0.0
vt 5.4 0.4
vt 0.0 0.4
vt 0.0 0.0
vt 0.0 0.0
vt 0.0 0.2
vt 0.0 0.2
vt 0.0 0.0
vt 2.4 0.0
vt 2.4 2.3
vt 0.0 2.3
vt 0.0 0.0
vt 5.6 0.0
vt 5.6 3.0
vt 0.0 3.0
vt 0.0 0.0
vt 1.3 0.0
vt 1.3 0.8
vt 0.0 0.8
vt 0.0 0.0
vt 1.4 0.0
vt 1.4 5.3
vt 0.0 5.3
vt 0.0 0.0
vt 2.0 0.0
vt 2.0 1.6
vt 0.0 1.6
vt 0.0 0.0
vt 0.4 0.0
vt 0.4 8.1
vt 0.0 8.1
vt 0.0 0.0
vt 0.9 0.0
vt 0.9 13.7
vt 0.0 13.7
vt 0.0 0.0
vt 1.7 0.0
vt 1.7 12.0
vt 0.0 12.0
vt 0.0 0.0
vt 3.8 0.0
vt 3.8 1.0
vt 0.0 1.0
vt 0.0 0.0
vt 1.8 0.0
vt 1.8 15.6
vt 0.0 15.6
vt 0.0 0.0
vt 9.2 0.0
vt 9.2 0.8
vt 0.0 0.8
vt 0.0 0.0
vt 1.6 0.0
vt 1.6 16.7
vt 0.0 16.7
vt 0.0 0.0
vt 0.2 0.0
vt 0.2 18.3
vt 0.0 18.3
vt 0.0 0.0
vt 0.9 0.0
vt 0.9 10.3
vt 0.0 10.3
vt 0.0 0.0
vt 3.3 0.0
vt 3.3 1.0
vt 0.0 1.0

vn 0.0 0.0 1.0
vn 0.0 0.0 1.0
vn 0.0 0.0 1.0
vn 0.0 0.0 1.0
vn 0.0 0.0 1.0
vn 0.0 0.0 1.0
vn 0.0 0.0 1.0
vn 0.0 0.0 1.0
vn 0.0 0.0 1.0
vn 0.0 0.0 1.0
vn 0.0 0.0 1.0
vn 0.0 0.0 1.0
vn 0.0 0.0 1.0
vn 0.0 0.0 1.0
vn 0.0 0.0 1.0
vn 0.0 0.0 1.0
vn 0.0 0.0 1.0
vn 0.0 0.0 1.0
vn 0.0 0.0 1.0
vn 0.0 0.0 1.0
vn 0.0 0.0 1.0
vn 0.0 0.0 1.0
vn 0.0 0.0 1.0
vn 0.0 0.0 1.0
vn 0.0 0.0 1.0
vn 0.0 0.0 1.0
vn 0.0 0.0 1.0
vn 0.0 0.0 1.0
vn 0.0 0.0 1.0
vn 0.0 0.0 1.0
vn 0.0 0.0 1.0
vn 0.0 0.0 1.0
vn 0.0 0.0 1.0
vn 0.0 0.0 1.0
vn 0.0 0.0 1.0
vn 0.0 0.0 1.0
vn 0.0 0.0 1.0
vn 0.0 0.0 1.0
vn 0.0 0.0 1.0
vn 0.0 0.0 1.0
vn 0.0 0.0 1.0
vn 0.0 0.0 1.0
vn 0.0 0.0 1.0
vn 0.0 0.0 1.0
vn 0.0 0.0 1.0
vn 0.0 0.0 1.0
vn 0.0 0.0 1.0
vn 0.0 0.0 1.0
vn 0.0 0.0 1.0
vn 0.0 0.0 1.0
vn 0.0 0.0 1.0
vn 0.0 0.0 1.0
vn 0.0 0.0 1.0
vn 0.0 0.0 1.0
vn 0.0 0.0 1.0
vn 0.0 0.0 1.0
vn 0.0 0.0 1.0
vn 0.0 0.0 1.0
vn 0.0 0.0 1.0
vn 0.0 0.0 1.0
vn 0.0 0.0 1.0
vn 0.0 0.0 1.0
vn 0.0 0.0 1.0
vn 0.0 0.0 1.0
vn 0.0 0.0 1.0
vn 0.0 0.0 1.0
vn 0.0 0.0 1.0
vn 0.0 0.0 1.0
vn 0.0 0.0 1.0
vn 0.0 0.0 1.0
vn 0.0 0.0 1.0
vn 0.0 0.0 1.0
vn 0.0 0.0 1.0
vn 0.0 0.0 1.0
vn 0.0 0.0 1.0
vn 0.0 0.0 1.0

o floor_0
mtllib output_floors.mtl
usemtl floors_material
f 1/1/1 2/2/2 3/3/3
f 1/1/1 3/3/3 4/4/4
o floor_1
mtllib output_floors.mtl
usemtl floors_material
f 5/5/5 6/6/6 7/7/7
f 5/5/5 7/7/7 8/8/8
o floor_2
mtllib output_floors.mtl
usemtl floors_material
f 9/9/9 10/10/10 11/11/11
f 9/9/9 11/11/11 12/12/12
o floor_3
mtllib output_floors.mtl
usemtl floors_material
f 13/13/13 14/14/14 15/15/15
f 13/13/13 15/15/15 16/16/16
o floor_4
mtllib output_floors.mtl
usemtl floors_material
f 17/17/17 18/18/18 19/19/19
f 17/17/17 19/19/19 20/20/20
o floor_5
mtllib output_floors.mtl
usemtl floors_material
f 21/21/21 22/22/22 23/23/23
f 21/21/21 23/23/23 24/24/24
o floor_6
mtllib output_floors.mtl
usemtl floors_material
f 25/25/25 26/26/26 27/27/27
f 25/25/25 27/27/27 28/28/28
o floor_7
mtllib output_floors.mtl
usemtl floors_material
f 29/29/29 30/30/30 31/31/31
f 29/29/29 31/31/31 32/32/32
o floor_8
mtllib output_floors.mtl
usemtl floors_material
f 33/33/33 34/34/34 35/35/35
f 33/33/33 35/35/35 36/36/36
o floor_9
mtllib output_floors.mtl
usemtl floors_material
f 37/37/37 38/38/38 39/39/39
f 37/37/37 39/39/39 40/40/40
o floor_10
mtllib output_floors.mtl
usemtl floors_material
f 41/41/41 42/42/42 43/43/43
f 41/41/41 43/43/43 44/44/44
o floor_11
mtllib output_floors.mtl
usemtl floors_material
f 45/45/45 46/46/46 47/47/47
f 45/45/45 47/47/47 48/48/48
o floor_12
mtllib output_floors.mtl
usemtl floors_material
f 49/49/49 50/50/50 51/51/51
f 49/49/49 51/51/51 52/52/52
o floor_13
mtllib output_floors.mtl
usemtl floors_material
f 53/53/53 54/54/54 55/55/55
f 53/53/53 55/55/55 56/56/56
o floor_14
mtllib output_floors.mtl
usemtl floors_material
f 57/57/57 58/58/58 59/59/59
f 57/57/57 59/59/59 60/60/60
o floor_15
mtllib output_floors.mtl
usemtl floors_material
f 61/61/61 62/62/62 63/63/63
f 61/61/61 63/63/63 64/64/64
o floor_16
mtllib output_floors.mtl
usemtl floors_material
f 65/65/65 66/66/66 67/67/67
f 65/65/65 67/67/67 68/68/68
o floor_17
mtllib output_floors.mtl
usemtl floors_material
f 69/69/69 70/70/70 71/71/71
f 69/69/69 71/71/71 72/72/72
o floor_18
mtllib output_floors.mtl
usemtl floors_material
f 73/73/73 74/74/74 75/75/75
f 73/73/73 75/75/75 76/76/76
